/* XPM */
static char * fcterm_xpm[] = {
"64 55 11 1",
" 	c orange",
".	c black",
"X	c blue",
"o	c #8080ff",
"O	c #606060",
"+	c yellow",
"@	c tomato",
"#	c brown",
"$	c #c0c0c0",
"%	c white",
"&	c #00c000",
"                                                                ",
"                                                                ",
"                                                                ",
"                                                                ",
"           .......................................              ",
"           .XXXXXXXXXXXXXXXXXXXXXXXXXXXXXXXXXXXXX.              ",
"           .XoooooooooooooooooooooooooooooooooooX.O             ",
"           .XoooooooooooooooooooooooooooooooooooX.O             ",
"           .Xooo+ooooooooooooooooooooooooo+oooooX.OO            ",
"           .Xoo++++ooooooooooooooooooooooo+oooooX.OO            ",
"           .Xo+o+ooooooooooooooooooooooooo+oooooX.OO@           ",
"           .Xo+o+ooooooooo++++oo+ooo+oo++++oooooX.OO@           ",
"           .Xoo+++oooooooo+ooo+o+ooo+o+ooo+oooooX.OO@           ",
"           .Xooo+o+ooooooo+ooo+o+o+o+o+ooo+oooooX.OO@           ",
"           .Xooo+o+ooooooo+ooo+o+o+o+o+ooo+oooooX.OO@           ",
"           .Xo++++oooooooo++++oo+o+o+o+ooo+oooooX.OO@           ",
"           .Xooo+ooooooooo+oooooo+o+ooo++++oooooX.OO@           ",
"           .Xooooooooooooo+oooooooooooooooooooooX.OO@           ",
"           .Xooooooooooooo+oooooooooooooooooooooX.OO@           ",
"           .XoooooooooooooooooooooooooooooooooooX.OO@           ",
"           .XoooooooooooooooooooooooooooooooooooX.OO@           ",
"           .XoooooooooooooooooooooooooooooooooooX.OO@           ",
"           .XoooooooooooooooooooooooooooooooooooX.OO@           ",
"           .XoooooooooooooooooooooooooooooooooooX.OO@           ",
"           .XoooooooooooooooooooooooooooooooooooX.OO@           ",
"           .XoooooooooooooooooooooooooooooooooooX.OO@           ",
"           .XoooooooooooooooooooooooooooooooooooX.OO@           ",
"           .XoooooooooooooooooooooooooooooooooooX.OO@           ",
"           .XoooooooooooooooooooooooooooooooooooX.OO@           ",
"           .XoooooooooooooooooooooooooooooooooooX.OO@           ",
"           .XoooooooooooooooooooooooooooooooooooX.OO@           ",
"           .XoooooooooooooooooooooooooooooooooooX.OO@           ",
"           .XXXXXXXXXXXXXXXXXXXXXXXXXXXXXXXXXXXXX.OO@  ####     ",
"           .......................................OO@  #@@###   ",
"            OOOOOOOOOOOOOOOOOOOOOOOOOOOOOOOOOOOOOOOO@ ##@ @@#   ",
"            OOOOOOOOOOOOOOOOOOOOOOOOOOOOOOOOOOOOOOOO@ #@   @#   ",
"              @@@@@@@@@@@@@@@@@@@@@@@@@@@@@@@@@@@@@@@ #@    #   ",
"                                                     ##@    #@  ",
"                                                     #@     #@  ",
"          ...........................................       #@  ",
"         .$$$$$$$$$$$$$$$$$$$$$$$$$$$$$$$$$$$$$$$$$$.       #@  ",
"         .$$$$$$$$$$$$$$$$$$$$$$$$$$$$$$$$$$$$$$$$$.O@     ##@  ",
"        .$$$%%%%$$$%%%%$$%%%%$$%%%%%$$%%%%%$$%%%%$$.O@    ##@   ",
"       .$$$%%%%%$$%%%%%$%%%%%$%%%%%$$%%%%%$$%%%%$$$.O@   ##@    ",
"       .$$$$$$$$$$$$$$$$$$$$$$$$$$$$$$$$$$$%%%%$$$.O@   ##@     ",
"      .$$%%%%$$%%%%$$%%%%$$%%%%$$%%%%%$$$$%%%%%$$$.O@  #@@      ",
"     .$$%%%%$$%%%%$$%%%%$$%%%%$$%%%%%$$$$%%%%%$$$.O@   #        ",
"    .$$$$$$$$$$$$$$$$$$$$$$$$$$$$$$$$$$$$$$$$$$$$.O@  &&        ",
"    .$$$$$$$$$$$$$$$$$$$$$$$$$$$$$$$$$$$$$$$$$$$$.O@ &&&&       ",
"   .$$$$$$$$$$$$$$$$$$$$$$$$$$$$$$$$$$$$$$$$$$$$.O@  &++&       ",
"    .............................................O@ &+&&&&      ",
"     OOOOOOOOOOOOOOOOOOOOOOOOOOOOOOOOOOOOOOOOOOOOO@ &+&&&&      ",
"      @@@@@@@@@@@@@@@@@@@@@@@@@@@@@@@@@@@@@@@@@@@@@ &+&&&@      ",
"                                                     &&&@       ",
"                                                      @@        "};
