/* XPM */
static char * elev2_xpm[] = {
"16 16 4 1",
" 	c DimGray",
".	c gray76",
"X	c white",
"o	c black",
"                ",
" .............X ",
" .............X ",
" .............X ",
" ......o......X ",
" .....ooo.....X ",
" ....ooooo....X ",
" ......o......X ",
" ......o......X ",
" ....ooooo....X ",
" .....ooo.....X ",
" ......o......X ",
" .............X ",
" .............X ",
" XXXXXXXXXXXXXX ",
"                "};
