/* XPM */
static char * uarrow1_xpm[] = {
"16 16 4 1",
" 	c gray76",
".	c black",
"X	c white",
"o	c DimGray",
"               .",
" XXXXXXXXXXXXXX.",
" X            o.",
" X            o.",
" X            o.",
" X            o.",
" X     .      o.",
" X    ...     o.",
" X   .....    o.",
" X  .......   o.",
" X            o.",
" X            o.",
" X            o.",
" X            o.",
" Xooooooooooooo.",
" ..............."};
