/* XPM */
static char * uarrow2_xpm[] = {
"16 16 3 1",
" 	c DimGray",
".	c gray76",
"X	c black",
"                ",
" .............. ",
" .............. ",
" .............. ",
" .............. ",
" .............. ",
" .............. ",
" .......X...... ",
" ......XXX..... ",
" .....XXXXX.... ",
" ....XXXXXXX... ",
" .............. ",
" .............. ",
" .............. ",
" .............. ",
"                "};
